<mxfile host="app.diagrams.net" agent="Mozilla/5.0 (X11; Linux x86_64; rv:126.0) Gecko/20100101 Firefox/126.0" version="24.7.6">
  <diagram id="C5RBs43oDa-KdzZeNtuy" name="Page-1">
    <mxGraphModel dx="1342" dy="710" grid="1" gridSize="10" guides="1" tooltips="1" connect="1" arrows="1" fold="1" page="1" pageScale="1" pageWidth="827" pageHeight="1169" math="0" shadow="0">
      <root>
        <mxCell id="WIyWlLk6GJQsqaUBKTNV-0" />
        <mxCell id="WIyWlLk6GJQsqaUBKTNV-1" parent="WIyWlLk6GJQsqaUBKTNV-0" />
        <mxCell id="g1GkeGPGmg4fx_gdMoAx-9" value="" style="rounded=0;whiteSpace=wrap;html=1;fillColor=#ffe6cc;strokeColor=#d79b00;" vertex="1" parent="WIyWlLk6GJQsqaUBKTNV-1">
          <mxGeometry x="270" y="460" width="300" height="80" as="geometry" />
        </mxCell>
        <mxCell id="g1GkeGPGmg4fx_gdMoAx-6" value="" style="rounded=0;whiteSpace=wrap;html=1;fillColor=#ffe6cc;strokeColor=#d79b00;" vertex="1" parent="WIyWlLk6GJQsqaUBKTNV-1">
          <mxGeometry x="350" y="190" width="340" height="160" as="geometry" />
        </mxCell>
        <mxCell id="g1GkeGPGmg4fx_gdMoAx-4" value="" style="rounded=0;whiteSpace=wrap;html=1;fillColor=#ffe6cc;strokeColor=#d79b00;" vertex="1" parent="WIyWlLk6GJQsqaUBKTNV-1">
          <mxGeometry x="100" y="190" width="190" height="140" as="geometry" />
        </mxCell>
        <mxCell id="WIyWlLk6GJQsqaUBKTNV-6" value="Screenshots every 5min" style="rhombus;whiteSpace=wrap;html=1;shadow=0;fontFamily=Helvetica;fontSize=12;align=center;strokeWidth=1;spacing=6;spacingTop=-4;" parent="WIyWlLk6GJQsqaUBKTNV-1" vertex="1">
          <mxGeometry x="147.5" y="210" width="95" height="70" as="geometry" />
        </mxCell>
        <mxCell id="g1GkeGPGmg4fx_gdMoAx-2" value="" style="rounded=0;html=1;jettySize=auto;orthogonalLoop=1;fontSize=11;endArrow=block;endFill=0;endSize=8;strokeWidth=1;shadow=0;labelBackgroundColor=none;edgeStyle=orthogonalEdgeStyle;exitX=1;exitY=0.5;exitDx=0;exitDy=0;entryX=0;entryY=0.5;entryDx=0;entryDy=0;" edge="1" parent="WIyWlLk6GJQsqaUBKTNV-1" source="WIyWlLk6GJQsqaUBKTNV-6" target="g1GkeGPGmg4fx_gdMoAx-3">
          <mxGeometry relative="1" as="geometry">
            <mxPoint x="320" y="229.75" as="sourcePoint" />
            <mxPoint x="360" y="229.75" as="targetPoint" />
          </mxGeometry>
        </mxCell>
        <mxCell id="g1GkeGPGmg4fx_gdMoAx-11" value="Sends" style="edgeLabel;html=1;align=center;verticalAlign=middle;resizable=0;points=[];" vertex="1" connectable="0" parent="g1GkeGPGmg4fx_gdMoAx-2">
          <mxGeometry x="0.0023" y="1" relative="1" as="geometry">
            <mxPoint x="12" y="1" as="offset" />
          </mxGeometry>
        </mxCell>
        <mxCell id="g1GkeGPGmg4fx_gdMoAx-10" style="edgeStyle=orthogonalEdgeStyle;rounded=0;orthogonalLoop=1;jettySize=auto;html=1;entryX=0.55;entryY=0.025;entryDx=0;entryDy=0;entryPerimeter=0;" edge="1" parent="WIyWlLk6GJQsqaUBKTNV-1" source="g1GkeGPGmg4fx_gdMoAx-3" target="g1GkeGPGmg4fx_gdMoAx-14">
          <mxGeometry relative="1" as="geometry" />
        </mxCell>
        <mxCell id="g1GkeGPGmg4fx_gdMoAx-13" value="Writes" style="edgeLabel;html=1;align=center;verticalAlign=middle;resizable=0;points=[];" vertex="1" connectable="0" parent="g1GkeGPGmg4fx_gdMoAx-10">
          <mxGeometry x="0.2842" y="1" relative="1" as="geometry">
            <mxPoint x="-47" y="-37" as="offset" />
          </mxGeometry>
        </mxCell>
        <mxCell id="g1GkeGPGmg4fx_gdMoAx-3" value="Python script runs OCR over the SS" style="rounded=1;whiteSpace=wrap;html=1;fontSize=12;glass=0;strokeWidth=1;shadow=0;" vertex="1" parent="WIyWlLk6GJQsqaUBKTNV-1">
          <mxGeometry x="380" y="225" width="120" height="40" as="geometry" />
        </mxCell>
        <mxCell id="g1GkeGPGmg4fx_gdMoAx-5" value=" Tablet" style="text;strokeColor=none;fillColor=none;html=1;fontSize=24;fontStyle=1;verticalAlign=middle;align=center;" vertex="1" parent="WIyWlLk6GJQsqaUBKTNV-1">
          <mxGeometry x="100" y="150" width="100" height="40" as="geometry" />
        </mxCell>
        <mxCell id="g1GkeGPGmg4fx_gdMoAx-7" value="Local Server" style="text;strokeColor=none;fillColor=none;html=1;fontSize=24;fontStyle=1;verticalAlign=middle;align=center;" vertex="1" parent="WIyWlLk6GJQsqaUBKTNV-1">
          <mxGeometry x="370" y="150" width="100" height="40" as="geometry" />
        </mxCell>
        <mxCell id="g1GkeGPGmg4fx_gdMoAx-8" value="Cloud (Supabase)" style="text;strokeColor=none;fillColor=none;html=1;fontSize=24;fontStyle=1;verticalAlign=middle;align=center;" vertex="1" parent="WIyWlLk6GJQsqaUBKTNV-1">
          <mxGeometry x="320" y="420" width="100" height="40" as="geometry" />
        </mxCell>
        <mxCell id="g1GkeGPGmg4fx_gdMoAx-14" value="Postgre DB" style="rounded=1;whiteSpace=wrap;html=1;fontSize=12;glass=0;strokeWidth=1;shadow=0;" vertex="1" parent="WIyWlLk6GJQsqaUBKTNV-1">
          <mxGeometry x="420" y="480" width="120" height="40" as="geometry" />
        </mxCell>
        <mxCell id="g1GkeGPGmg4fx_gdMoAx-15" value="Data Exploration" style="rounded=1;whiteSpace=wrap;html=1;fontSize=12;glass=0;strokeWidth=1;shadow=0;" vertex="1" parent="WIyWlLk6GJQsqaUBKTNV-1">
          <mxGeometry x="520" y="225" width="120" height="40" as="geometry" />
        </mxCell>
        <mxCell id="g1GkeGPGmg4fx_gdMoAx-16" style="edgeStyle=orthogonalEdgeStyle;rounded=0;orthogonalLoop=1;jettySize=auto;html=1;entryX=0.433;entryY=0.967;entryDx=0;entryDy=0;entryPerimeter=0;exitX=0.689;exitY=-0.025;exitDx=0;exitDy=0;exitPerimeter=0;" edge="1" parent="WIyWlLk6GJQsqaUBKTNV-1" source="g1GkeGPGmg4fx_gdMoAx-14" target="g1GkeGPGmg4fx_gdMoAx-15">
          <mxGeometry relative="1" as="geometry">
            <mxPoint x="700" y="384" as="sourcePoint" />
            <mxPoint x="736" y="630" as="targetPoint" />
          </mxGeometry>
        </mxCell>
        <mxCell id="g1GkeGPGmg4fx_gdMoAx-18" value="Loads" style="edgeLabel;html=1;align=center;verticalAlign=middle;resizable=0;points=[];" vertex="1" connectable="0" parent="g1GkeGPGmg4fx_gdMoAx-16">
          <mxGeometry x="-0.0853" relative="1" as="geometry">
            <mxPoint x="50" y="-17" as="offset" />
          </mxGeometry>
        </mxCell>
        <mxCell id="g1GkeGPGmg4fx_gdMoAx-19" value="&lt;font style=&quot;font-size: 5px;&quot;&gt;src/OCR/ocr_reader_and_writer.py&lt;/font&gt;" style="text;html=1;align=center;verticalAlign=middle;resizable=0;points=[];autosize=1;strokeColor=none;fillColor=none;strokeWidth=0;" vertex="1" parent="WIyWlLk6GJQsqaUBKTNV-1">
          <mxGeometry x="376" y="202" width="100" height="30" as="geometry" />
        </mxCell>
        <mxCell id="g1GkeGPGmg4fx_gdMoAx-21" value="&lt;div&gt;&lt;font style=&quot;font-size: 5px;&quot;&gt;src/DE/data_exploration.ipynb&lt;/font&gt;&lt;/div&gt;" style="text;html=1;align=center;verticalAlign=middle;resizable=0;points=[];autosize=1;strokeColor=none;fillColor=none;strokeWidth=0;" vertex="1" parent="WIyWlLk6GJQsqaUBKTNV-1">
          <mxGeometry x="519" y="201" width="90" height="30" as="geometry" />
        </mxCell>
      </root>
    </mxGraphModel>
  </diagram>
</mxfile>
